<svg data-v-fde0c5aa="" xmlns="http://www.w3.org/2000/svg" viewBox="0 0 300 300" class="iconLeftSlogan"><!----><defs data-v-fde0c5aa=""><!----></defs><rect data-v-fde0c5aa="" fill="#00000000" x="0" y="0" width="300px" height="300px" class="logo-background-square"></rect><defs data-v-fde0c5aa=""><linearGradient data-v-fde0c5aa="" gradientTransform="rotate(25)" id="8cbc3ad2-2b99-4cc7-8825-c58b245511ee" x1="0%" y1="0%" x2="100%" y2="0%"><stop data-v-fde0c5aa="" offset="0%" stop-color="#07FF53" stop-opacity="1"></stop><stop data-v-fde0c5aa="" offset="100%" stop-color="#01A0FD" stop-opacity="1"></stop></linearGradient></defs><g data-v-fde0c5aa="" id="1903f832-f860-477c-bf83-701e11664228" fill="url(#8cbc3ad2-2b99-4cc7-8825-c58b245511ee)" transform="matrix(3.3575835646643655,0,0,3.3575835646643655,130.2965427103467,113.67654434070478)"><path d="M6.13 13.72L6.13 13.72L6.13 13.72Q4.87 13.72 3.86 13.35L3.86 13.35L3.86 13.35Q2.84 12.98 2.14 12.29L2.14 12.29L2.14 12.29Q1.43 11.59 1.04 10.61L1.04 10.61L1.04 10.61Q0.66 9.62 0.66 8.39L0.66 8.39L0.66 8.39Q0.66 7.11 1.07 6.05L1.07 6.05L1.07 6.05Q1.48 5.00 2.23 4.24L2.23 4.24L2.23 4.24Q2.97 3.49 4.00 3.07L4.00 3.07L4.00 3.07Q5.04 2.66 6.30 2.66L6.30 2.66L6.30 2.66Q7.17 2.66 7.95 2.90L7.95 2.90L7.95 2.90Q8.74 3.14 9.65 3.67L9.65 3.67L9.91 2.80L10.42 2.80L10.42 6.34L9.72 6.34L9.72 6.34Q9.44 5.03 8.59 4.30L8.59 4.30L8.59 4.30Q7.74 3.57 6.47 3.57L6.47 3.57L6.47 3.57Q4.86 3.57 3.97 4.81L3.97 4.81L3.97 4.81Q3.08 6.05 3.08 8.27L3.08 8.27L3.08 8.27Q3.08 10.46 3.95 11.62L3.95 11.62L3.95 11.62Q4.82 12.78 6.47 12.78L6.47 12.78L6.47 12.78Q7.66 12.78 8.32 12.17L8.32 12.17L8.32 12.17Q8.99 11.56 8.99 10.49L8.99 10.49L8.99 10.49Q8.99 9.84 8.65 9.54L8.65 9.54L8.65 9.54Q8.32 9.24 7.52 9.17L7.52 9.17L7.52 8.61L12.05 8.61L12.05 9.17L12.05 9.17Q11.37 9.17 11.10 9.47L11.10 9.47L11.10 9.47Q10.84 9.77 10.84 10.56L10.84 10.56L10.84 12.42L10.84 12.42Q10.53 12.42 10.32 12.44L10.32 12.44L10.32 12.44Q10.11 12.46 9.90 12.52L9.90 12.52L9.90 12.52Q9.70 12.59 9.45 12.73L9.45 12.73L9.45 12.73Q9.20 12.87 8.82 13.09L8.82 13.09L8.82 13.09Q7.74 13.72 6.13 13.72ZM15.72 1.96L15.72 11.28L15.72 11.28Q15.72 11.84 15.76 12.18L15.76 12.18L15.76 12.18Q15.81 12.52 15.93 12.70L15.93 12.70L15.93 12.70Q16.06 12.88 16.30 12.94L16.30 12.94L16.30 12.94Q16.53 13.01 16.94 13.02L16.94 13.02L16.94 13.58L12.53 13.58L12.53 13.02L12.53 13.02Q12.92 13.01 13.17 12.93L13.17 12.93L13.17 12.93Q13.41 12.85 13.55 12.68L13.55 12.68L13.55 12.68Q13.68 12.50 13.73 12.19L13.73 12.19L13.73 12.19Q13.78 11.87 13.78 11.38L13.78 11.38L13.78 5.60L13.78 5.60Q13.78 4.79 13.75 4.26L13.75 4.26L13.75 4.26Q13.72 3.74 13.68 3.54L13.68 3.54L13.68 3.54Q13.61 3.19 13.36 3.08L13.36 3.08L13.36 3.08Q13.12 2.97 12.47 2.97L12.47 2.97L12.47 2.49L15.72 1.96ZM21.83 6.02L21.83 6.02L21.83 6.02Q22.67 6.02 23.42 6.31L23.42 6.31L23.42 6.31Q24.16 6.59 24.73 7.10L24.73 7.10L24.73 7.10Q25.30 7.60 25.63 8.29L25.63 8.29L25.63 8.29Q25.96 8.99 25.96 9.81L25.96 9.81L25.96 9.81Q25.96 10.67 25.63 11.38L25.63 11.38L25.63 11.38Q25.30 12.10 24.73 12.61L24.73 12.61L24.73 12.61Q24.16 13.13 23.42 13.43L23.42 13.43L23.42 13.43Q22.67 13.72 21.83 13.72L21.83 13.72L21.83 13.72Q21 13.72 20.26 13.43L20.26 13.43L20.26 13.43Q19.52 13.15 18.96 12.63L18.96 12.63L18.96 12.63Q18.40 12.11 18.07 11.39L18.07 11.39L18.07 11.39Q17.75 10.67 17.75 9.81L17.75 9.81L17.75 9.81Q17.75 8.99 18.07 8.29L18.07 8.29L18.07 8.29Q18.40 7.59 18.96 7.08L18.96 7.08L18.96 7.08Q19.52 6.58 20.26 6.30L20.26 6.30L20.26 6.30Q21 6.02 21.83 6.02ZM21.83 6.83L21.83 6.83L21.83 6.83Q21.41 6.83 21.06 7.05L21.06 7.05L21.06 7.05Q20.71 7.27 20.46 7.66L20.46 7.66L20.46 7.66Q20.22 8.05 20.08 8.60L20.08 8.60L20.08 8.60Q19.95 9.16 19.95 9.83L19.95 9.83L19.95 9.83Q19.95 10.53 20.08 11.09L20.08 11.09L20.08 11.09Q20.22 11.65 20.46 12.04L20.46 12.04L20.46 12.04Q20.71 12.43 21.05 12.65L21.05 12.65L21.05 12.65Q21.39 12.87 21.83 12.87L21.83 12.87L21.83 12.87Q22.26 12.87 22.62 12.65L22.62 12.65L22.62 12.65Q22.97 12.43 23.23 12.03L23.23 12.03L23.23 12.03Q23.48 11.63 23.62 11.07L23.62 11.07L23.62 11.07Q23.76 10.51 23.76 9.83L23.76 9.83L23.76 9.83Q23.76 9.16 23.62 8.61L23.62 8.61L23.62 8.61Q23.48 8.06 23.23 7.67L23.23 7.67L23.23 7.67Q22.97 7.27 22.62 7.05L22.62 7.05L22.62 7.05Q22.26 6.83 21.83 6.83ZM32.44 8.75L30.55 13.72L29.50 13.72L27.58 7.97L27.58 7.97Q27.36 7.29 27.06 7.02L27.06 7.02L27.06 7.02Q26.77 6.75 26.28 6.72L26.28 6.72L26.28 6.16L30.28 6.16L30.28 6.72L30.28 6.72Q29.78 6.73 29.58 6.87L29.58 6.87L29.58 6.87Q29.39 7 29.39 7.32L29.39 7.32L29.39 7.32Q29.39 7.48 29.43 7.66L29.43 7.66L29.43 7.66Q29.47 7.84 29.54 8.08L29.54 8.08L30.42 11.35L30.48 11.35L32.44 6.16L33.59 6.16L35.06 11.35L35.13 11.35L36.25 8.46L36.25 8.46Q36.39 8.11 36.44 7.85L36.44 7.85L36.44 7.85Q36.50 7.59 36.50 7.39L36.50 7.39L36.50 7.39Q36.50 7.03 36.26 6.87L36.26 6.87L36.26 6.87Q36.02 6.72 35.62 6.72L35.62 6.72L35.62 6.16L38.63 6.16L38.63 6.72L38.63 6.72Q38.37 6.72 38.21 6.78L38.21 6.78L38.21 6.78Q38.04 6.83 37.87 7.04L37.87 7.04L37.87 7.04Q37.70 7.25 37.51 7.69L37.51 7.69L37.51 7.69Q37.31 8.12 37.02 8.88L37.02 8.88L35.08 13.72L33.98 13.72L32.49 8.75L32.44 8.75Z"></path></g><defs data-v-fde0c5aa=""><linearGradient data-v-fde0c5aa="" gradientTransform="rotate(25)" id="1ea3e9c6-1bc2-4192-9ad8-e0a4af828ebc" x1="0%" y1="0%" x2="100%" y2="0%"><stop data-v-fde0c5aa="" offset="0%" stop-color="#FF4407" stop-opacity="1"></stop><stop data-v-fde0c5aa="" offset="100%" stop-color="#F6E400" stop-opacity="1"></stop></linearGradient></defs><g data-v-fde0c5aa="" id="6d2d5112-2bfb-4957-ab8b-1ac85e0b3dd4" stroke="none" fill="url(#1ea3e9c6-1bc2-4192-9ad8-e0a4af828ebc)" transform="matrix(0.9579824173765721,0,0,0.9579824173765721,31.37815824361085,102.57987033985968)"><path d="M72.692 53.688a22.004 22.004 0 1 1-4.764-17.74 1 1 0 0 1-1.538 1.279 19.998 19.998 0 1 0 4.33 16.127 1 1 0 0 1 1.972.333zM36.625 17.97a1.005 1.005 0 0 1 0 2.01 4.625 4.625 0 0 0-4.62 4.62 1 1 0 0 1-1 1h-.01a1 1 0 0 1-1-1 4.625 4.625 0 0 0-4.62-4.62 1.005 1.005 0 0 1 0-2.01 4.626 4.626 0 0 0 4.62-4.62 1.005 1.005 0 0 1 2.01 0 4.626 4.626 0 0 0 4.62 4.62zm-3.487 1.005A6.67 6.67 0 0 1 31 16.84a6.67 6.67 0 0 1-2.138 2.137A6.676 6.676 0 0 1 31 21.114a6.676 6.676 0 0 1 2.138-2.138zm.346 55.033a1.016 1.016 0 0 1-1 1.019 9.326 9.326 0 0 0-9.315 9.315 1 1 0 0 1-1 1h-.019a1 1 0 0 1-1-1 9.326 9.326 0 0 0-9.315-9.315 1 1 0 0 1-1-1 1.016 1.016 0 0 1 1-1.019 9.326 9.326 0 0 0 9.315-9.315 1 1 0 0 1 1-1 1.016 1.016 0 0 1 1.019 1 9.326 9.326 0 0 0 9.315 9.315 1 1 0 0 1 1 1zm-5.629.01a11.383 11.383 0 0 1-5.695-5.696 11.383 11.383 0 0 1-5.696 5.696 11.383 11.383 0 0 1 5.696 5.695 11.383 11.383 0 0 1 5.695-5.695zM92 42.782a1.023 1.023 0 0 1-1 1.026 13.65 13.65 0 0 0-13.635 13.635 1 1 0 0 1-1 1h-.026a1 1 0 0 1-1-1 13.65 13.65 0 0 0-13.635-13.635 1 1 0 0 1-1-1 1.023 1.023 0 0 1 1-1.026 13.65 13.65 0 0 0 13.635-13.635 1 1 0 0 1 1-1 1.022 1.022 0 0 1 1.026 1A13.65 13.65 0 0 0 91 41.782a1 1 0 0 1 1 1zm-6.47.013a15.719 15.719 0 0 1-9.178-9.179 15.716 15.716 0 0 1-9.18 9.179 15.716 15.716 0 0 1 9.18 9.179 15.719 15.719 0 0 1 9.179-9.18zM18 46a1 1 0 0 0 1-1v-1h1a1 1 0 0 0 0-2h-1v-1a1 1 0 0 0-2 0v1h-1a1 1 0 0 0 0 2h1v1a1 1 0 0 0 1 1zm61 31h-4v-4a1 1 0 0 0-2 0v4h-4a1 1 0 0 0 0 2h4v4a1 1 0 0 0 2 0v-4h4a1 1 0 0 0 0-2zM66 9a1 1 0 0 0-1 1 1 1 0 0 0 0 2 1 1 0 0 0 2 0 1 1 0 0 0 0-2 1 1 0 0 0-1-1zM47 87a1 1 0 0 0-2 0 1 1 0 0 0 0 2 1 1 0 0 0 2 0 1 1 0 0 0 0-2zm44-26a1 1 0 0 0-2 0 1 1 0 0 0 0 2 1 1 0 0 0 2 0 1 1 0 0 0 0-2zM12 26a1 1 0 0 0 0-2 1 1 0 0 0-2 0 1 1 0 0 0 0 2 1 1 0 0 0 2 0z" data-name="Layer 3"></path></g><defs data-v-fde0c5aa=""><!----></defs><g data-v-fde0c5aa="" id="7b5198a3-df11-40a4-b53e-6c99add1ed1b" fill="#B006F6" transform="matrix(0.435274149588011,0,0,0.435274149588011,132.24267797626118,168.30618707158646)"><path d="M0.62 8.90L0.62 8.90L0.62 8.90Q0.62 7.38 1.20 6.16L1.20 6.16L1.20 6.16Q1.79 4.94 3.02 4.19L3.02 4.19L3.02 4.19Q4.24 3.44 5.92 3.44L5.92 3.44L5.92 3.44Q6.78 3.44 7.64 3.70L7.64 3.70L7.64 3.70Q8.51 3.95 9.03 4.20L9.03 4.20L9.55 4.47L9.55 4.47Q9.59 4.47 9.69 4.40L9.69 4.40L9.69 4.40Q9.79 4.33 9.84 4.33L9.84 4.33L9.84 4.33Q9.91 4.33 9.98 4.38L9.98 4.38L9.98 4.38Q10.05 4.44 10.05 4.55L10.05 4.55L10.05 4.55Q10.07 4.96 10.12 5.41L10.12 5.41L10.12 5.41Q10.16 5.87 10.21 6.16L10.21 6.16L10.21 6.16Q10.25 6.45 10.25 6.51L10.25 6.51L10.25 6.51Q10.25 6.76 10.08 6.76L10.08 6.76L10.08 6.76Q9.95 6.76 9.84 6.57L9.84 6.57L9.84 6.57Q8.48 4.02 5.92 4.02L5.92 4.02L5.92 4.02Q4.17 4.02 3.05 5.14L3.05 5.14L3.05 5.14Q1.93 6.26 1.93 8.06L1.93 8.06L1.93 8.06Q1.93 9.06 2.19 9.93L2.19 9.93L2.19 9.93Q2.45 10.79 2.98 11.51L2.98 11.51L2.98 11.51Q3.50 12.24 4.42 12.66L4.42 12.66L4.42 12.66Q5.35 13.08 6.58 13.08L6.58 13.08L6.58 13.08Q8.60 13.08 9.97 10.98L9.97 10.98L9.97 10.98Q10.02 10.88 10.18 10.88L10.18 10.88L10.18 10.88Q10.30 10.88 10.30 11.07L10.30 11.07L10.30 11.07Q10.30 11.23 10.26 11.49L10.26 11.49L10.26 11.49Q10.21 11.75 10.14 12.06L10.14 12.06L10.14 12.06Q10.07 12.38 10.05 12.45L10.05 12.45L10.05 12.45Q10.02 12.60 9.83 12.70L9.83 12.70L9.83 12.70Q9.07 13.06 8.64 13.24L8.64 13.24L8.64 13.24Q8.22 13.43 7.56 13.57L7.56 13.57L7.56 13.57Q6.90 13.72 6.22 13.72L6.22 13.72L6.22 13.72Q5.00 13.72 4.02 13.43L4.02 13.43L4.02 13.43Q3.04 13.13 2.42 12.66L2.42 12.66L2.42 12.66Q1.79 12.18 1.37 11.54L1.37 11.54L1.37 11.54Q0.95 10.91 0.78 10.25L0.78 10.25L0.78 10.25Q0.62 9.60 0.62 8.90ZM18.58 3.65L18.58 3.65L18.58 3.65Q18.58 3.46 18.97 3.46L18.97 3.46L18.97 3.46Q19.03 3.46 19.15 3.47L19.15 3.47L19.15 3.47Q19.28 3.49 19.35 3.49L19.35 3.49L19.35 3.49Q19.39 3.49 20.66 3.52L20.66 3.52L20.66 3.52Q21.94 3.56 22.76 3.56L22.76 3.56L22.76 3.56Q23.06 3.56 24.21 3.53L24.21 3.53L24.21 3.53Q25.37 3.50 25.56 3.50L25.56 3.50L25.56 3.50Q25.83 3.50 25.83 3.82L25.83 3.82L25.83 3.82Q25.83 3.91 25.75 4.38L25.75 4.38L25.75 4.38Q25.66 4.84 25.66 5.25L25.66 5.25L25.66 5.25Q25.66 5.38 25.59 5.47L25.59 5.47L25.59 5.47Q25.52 5.56 25.44 5.56L25.44 5.56L25.44 5.56Q25.23 5.56 25.23 5.26L25.23 5.26L25.23 5.26Q25.23 4.89 24.99 4.58L24.99 4.58L24.99 4.58Q24.75 4.27 24.40 4.26L24.40 4.26L24.40 4.26Q23.14 4.16 22.47 4.16L22.47 4.16L22.11 4.16L22.11 4.16Q21.38 4.16 21.26 4.26L21.26 4.26L21.26 4.26Q21.14 4.37 21.11 5.01L21.11 5.01L21.11 5.01Q21.06 6.02 21.06 7.35L21.06 7.35L21.06 7.35Q21.06 8.05 21.32 8.06L21.32 8.06L21.67 8.06L22.26 8.06L22.69 8.06L22.69 8.06Q23.53 8.06 23.81 8.01L23.81 8.01L23.81 8.01Q24.09 7.95 24.32 7.80L24.32 7.80L24.32 7.80Q24.58 7.62 24.64 7.28L24.64 7.28L24.64 7.28Q24.68 7.04 24.84 7.04L24.84 7.04L24.84 7.04Q24.96 7.04 24.99 7.08L24.99 7.08L24.99 7.08Q25.02 7.13 25.02 7.27L25.02 7.27L25.02 7.27Q25.02 7.36 24.96 7.91L24.96 7.91L24.96 7.91Q24.91 8.46 24.91 8.74L24.91 8.74L24.91 8.74Q24.91 9.00 24.93 9.24L24.93 9.24L24.93 9.24Q24.95 9.48 24.95 9.59L24.95 9.59L24.95 9.59Q24.95 9.94 24.85 9.94L24.85 9.94L24.85 9.94Q24.64 9.94 24.54 9.60L24.54 9.60L24.54 9.60Q24.35 9.02 24.19 8.92L24.19 8.92L24.19 8.92Q23.90 8.72 22.85 8.72L22.85 8.72L22.85 8.72Q22.43 8.72 22.17 8.72L22.17 8.72L22.17 8.72Q21.91 8.72 21.83 8.71L21.83 8.71L21.83 8.71Q21.76 8.71 21.71 8.71L21.71 8.71L21.71 8.71Q21.66 8.71 21.62 8.71L21.62 8.71L21.62 8.71Q21.04 8.71 21.04 8.97L21.04 8.97L21.04 8.97Q21.04 9.38 21.03 9.99L21.03 9.99L21.03 9.99Q21.01 10.60 21.01 10.99L21.01 10.99L21.01 11.55L21.01 11.55Q21.01 12.56 21.35 12.66L21.35 12.66L21.35 12.66Q21.70 12.77 21.95 12.77L21.95 12.77L21.95 12.77Q23.00 12.77 23.79 12.67L23.79 12.67L23.79 12.67Q24.58 12.57 24.98 12.42L24.98 12.42L24.98 12.42Q25.38 12.28 25.65 12.10L25.65 12.10L25.65 12.10Q25.91 11.93 25.99 11.78L25.99 11.78L25.99 11.78Q26.07 11.63 26.15 11.54L26.15 11.54L26.15 11.54Q26.22 11.44 26.31 11.44L26.31 11.44L26.31 11.44Q26.47 11.44 26.47 11.68L26.47 11.68L26.47 11.68Q26.47 12.28 25.87 12.89L25.87 12.89L25.87 12.89Q25.27 13.51 24.82 13.51L24.82 13.51L24.82 13.51Q23.81 13.51 22.55 13.44L22.55 13.44L22.55 13.44Q21.28 13.37 20.97 13.37L20.97 13.37L20.97 13.37Q20.58 13.37 19.99 13.43L19.99 13.43L19.99 13.43Q19.40 13.50 19.07 13.50L19.07 13.50L19.07 13.50Q18.77 13.50 18.77 13.36L18.77 13.36L18.77 13.36Q18.77 13.23 18.77 13.19L18.77 13.19L18.77 13.19Q18.77 13.15 18.82 13.12L18.82 13.12L18.82 13.12Q18.86 13.09 18.91 13.08L18.91 13.08L18.91 13.08Q18.96 13.08 19.09 13.03L19.09 13.03L19.09 13.03Q19.22 12.99 19.38 12.92L19.38 12.92L19.38 12.92Q19.71 12.75 19.82 12.26L19.82 12.26L19.82 12.26Q19.92 11.77 19.92 10.21L19.92 10.21L19.92 8.47L19.92 8.47Q19.92 8.09 19.94 7.29L19.94 7.29L19.94 7.29Q19.96 6.50 19.96 6.05L19.96 6.05L19.96 6.05Q19.96 5.67 19.94 4.77L19.94 4.77L19.94 4.77Q19.92 4.37 19.59 4.14L19.59 4.14L19.59 4.14Q19.25 3.92 18.80 3.91L18.80 3.91L18.80 3.91Q18.58 3.91 18.58 3.65ZM34.03 3.71L34.03 3.71L34.03 3.71Q34.03 3.46 34.41 3.46L34.41 3.46L34.41 3.46Q34.47 3.46 34.59 3.47L34.59 3.47L34.59 3.47Q34.72 3.49 34.79 3.49L34.79 3.49L34.79 3.49Q34.93 3.49 35.32 3.51L35.32 3.51L35.32 3.51Q35.70 3.54 36.01 3.54L36.01 3.54L36.01 3.54Q36.44 3.54 36.93 3.51L36.93 3.51L36.93 3.51Q37.42 3.49 37.48 3.49L37.48 3.49L37.48 3.49Q37.72 3.49 37.72 3.63L37.72 3.63L37.72 3.63Q37.72 3.82 37.55 3.88L37.55 3.88L37.55 3.88Q37.38 3.95 37.18 3.97L37.18 3.97L37.18 3.97Q36.97 3.99 36.79 4.28L36.79 4.28L36.79 4.28Q36.60 4.56 36.57 5.14L36.57 5.14L36.57 5.14Q36.54 5.68 36.50 8.19L36.50 8.19L36.50 8.19Q36.46 10.70 36.46 10.99L36.46 10.99L36.46 11.55L36.46 11.55Q36.46 12.56 36.79 12.66L36.79 12.66L36.79 12.66Q37.14 12.77 37.39 12.77L37.39 12.77L37.39 12.77Q38.44 12.77 39.24 12.67L39.24 12.67L39.24 12.67Q40.03 12.57 40.43 12.42L40.43 12.42L40.43 12.42Q40.82 12.28 41.09 12.10L41.09 12.10L41.09 12.10Q41.36 11.93 41.43 11.78L41.43 11.78L41.43 11.78Q41.51 11.63 41.59 11.54L41.59 11.54L41.59 11.54Q41.66 11.44 41.75 11.44L41.75 11.44L41.75 11.44Q41.92 11.44 41.92 11.68L41.92 11.68L41.92 11.68Q41.92 12.28 41.31 12.89L41.31 12.89L41.31 12.89Q40.71 13.51 40.26 13.51L40.26 13.51L40.26 13.51Q39.26 13.51 37.99 13.44L37.99 13.44L37.99 13.44Q36.72 13.37 36.41 13.37L36.41 13.37L36.41 13.37Q36.02 13.37 35.51 13.43L35.51 13.43L35.51 13.43Q35.00 13.48 34.66 13.48L34.66 13.48L34.66 13.48Q34.26 13.48 34.26 13.31L34.26 13.31L34.26 13.31Q34.26 13.22 34.34 13.15L34.34 13.15L34.34 13.15Q34.41 13.09 34.48 13.09L34.48 13.09L34.48 13.09Q34.69 13.09 34.89 12.95L34.89 12.95L34.89 12.95Q35.14 12.75 35.25 12.23L35.25 12.23L35.25 12.23Q35.36 11.70 35.36 10.21L35.36 10.21L35.36 8.47L35.36 8.47Q35.36 8.09 35.39 7.29L35.39 7.29L35.39 7.29Q35.41 6.50 35.41 6.05L35.41 6.05L35.41 6.05Q35.41 5.67 35.38 4.77L35.38 4.77L35.38 4.77Q35.36 4.37 35.03 4.14L35.03 4.14L35.03 4.14Q34.69 3.92 34.24 3.91L34.24 3.91L34.24 3.91Q34.10 3.91 34.07 3.86L34.07 3.86L34.07 3.86Q34.03 3.81 34.03 3.71ZM49.48 3.65L49.48 3.65L49.48 3.65Q49.48 3.46 49.87 3.46L49.87 3.46L49.87 3.46Q49.92 3.46 50.05 3.47L50.05 3.47L50.05 3.47Q50.18 3.49 50.25 3.49L50.25 3.49L50.25 3.49Q50.29 3.49 51.56 3.52L51.56 3.52L51.56 3.52Q52.84 3.56 53.66 3.56L53.66 3.56L53.66 3.56Q53.96 3.56 55.11 3.53L55.11 3.53L55.11 3.53Q56.27 3.50 56.46 3.50L56.46 3.50L56.46 3.50Q56.73 3.50 56.73 3.82L56.73 3.82L56.73 3.82Q56.73 3.91 56.64 4.38L56.64 4.38L56.64 4.38Q56.56 4.84 56.56 5.25L56.56 5.25L56.56 5.25Q56.56 5.38 56.49 5.47L56.49 5.47L56.49 5.47Q56.42 5.56 56.34 5.56L56.34 5.56L56.34 5.56Q56.13 5.56 56.13 5.26L56.13 5.26L56.13 5.26Q56.13 4.89 55.89 4.58L55.89 4.58L55.89 4.58Q55.65 4.27 55.30 4.26L55.30 4.26L55.30 4.26Q54.04 4.16 53.37 4.16L53.37 4.16L53.00 4.16L53.00 4.16Q52.28 4.16 52.16 4.26L52.16 4.26L52.16 4.26Q52.04 4.37 52.01 5.01L52.01 5.01L52.01 5.01Q51.95 6.02 51.95 7.35L51.95 7.35L51.95 7.35Q51.95 8.05 52.22 8.06L52.22 8.06L52.57 8.06L53.16 8.06L53.59 8.06L53.59 8.06Q54.43 8.06 54.71 8.01L54.71 8.01L54.71 8.01Q54.99 7.95 55.22 7.80L55.22 7.80L55.22 7.80Q55.48 7.62 55.54 7.28L55.54 7.28L55.54 7.28Q55.58 7.04 55.73 7.04L55.73 7.04L55.73 7.04Q55.86 7.04 55.89 7.08L55.89 7.08L55.89 7.08Q55.92 7.13 55.92 7.27L55.92 7.27L55.92 7.27Q55.92 7.36 55.86 7.91L55.86 7.91L55.86 7.91Q55.80 8.46 55.80 8.74L55.80 8.74L55.80 8.74Q55.80 9.00 55.83 9.24L55.83 9.24L55.83 9.24Q55.85 9.48 55.85 9.59L55.85 9.59L55.85 9.59Q55.85 9.94 55.75 9.94L55.75 9.94L55.75 9.94Q55.54 9.94 55.44 9.60L55.44 9.60L55.44 9.60Q55.24 9.02 55.09 8.92L55.09 8.92L55.09 8.92Q54.80 8.72 53.75 8.72L53.75 8.72L53.75 8.72Q53.33 8.72 53.07 8.72L53.07 8.72L53.07 8.72Q52.81 8.72 52.73 8.71L52.73 8.71L52.73 8.71Q52.65 8.71 52.61 8.71L52.61 8.71L52.61 8.71Q52.56 8.71 52.51 8.71L52.51 8.71L52.51 8.71Q51.94 8.71 51.94 8.97L51.94 8.97L51.94 8.97Q51.94 9.38 51.93 9.99L51.93 9.99L51.93 9.99Q51.91 10.60 51.91 10.99L51.91 10.99L51.91 11.55L51.91 11.55Q51.91 12.56 52.25 12.66L52.25 12.66L52.25 12.66Q52.60 12.77 52.85 12.77L52.85 12.77L52.85 12.77Q53.90 12.77 54.69 12.67L54.69 12.67L54.69 12.67Q55.48 12.57 55.88 12.42L55.88 12.42L55.88 12.42Q56.28 12.28 56.55 12.10L56.55 12.10L56.55 12.10Q56.81 11.93 56.89 11.78L56.89 11.78L56.89 11.78Q56.97 11.63 57.04 11.54L57.04 11.54L57.04 11.54Q57.12 11.44 57.20 11.44L57.20 11.44L57.20 11.44Q57.37 11.44 57.37 11.68L57.37 11.68L57.37 11.68Q57.37 12.28 56.77 12.89L56.77 12.89L56.77 12.89Q56.17 13.51 55.72 13.51L55.72 13.51L55.72 13.51Q54.71 13.51 53.45 13.44L53.45 13.44L53.45 13.44Q52.18 13.37 51.87 13.37L51.87 13.37L51.87 13.37Q51.48 13.37 50.89 13.43L50.89 13.43L50.89 13.43Q50.30 13.50 49.97 13.50L49.97 13.50L49.97 13.50Q49.67 13.50 49.67 13.36L49.67 13.36L49.67 13.36Q49.67 13.23 49.67 13.19L49.67 13.19L49.67 13.19Q49.67 13.15 49.71 13.12L49.71 13.12L49.71 13.12Q49.76 13.09 49.81 13.08L49.81 13.08L49.81 13.08Q49.85 13.08 49.99 13.03L49.99 13.03L49.99 13.03Q50.12 12.99 50.27 12.92L50.27 12.92L50.27 12.92Q50.61 12.75 50.72 12.26L50.72 12.26L50.72 12.26Q50.82 11.77 50.82 10.21L50.82 10.21L50.82 8.47L50.82 8.47Q50.82 8.09 50.84 7.29L50.84 7.29L50.84 7.29Q50.86 6.50 50.86 6.05L50.86 6.05L50.86 6.05Q50.86 5.67 50.83 4.77L50.83 4.77L50.83 4.77Q50.82 4.37 50.48 4.14L50.48 4.14L50.48 4.14Q50.15 3.92 49.70 3.91L49.70 3.91L49.70 3.91Q49.48 3.91 49.48 3.65ZM65.48 10.82L65.48 10.82L65.48 10.82Q65.48 10.53 65.67 10.53L65.67 10.53L65.67 10.53Q65.86 10.53 65.90 10.67L65.90 10.67L65.90 10.67Q66.04 11.00 66.16 11.25L66.16 11.25L66.16 11.25Q66.28 11.49 66.54 11.85L66.54 11.85L66.54 11.85Q66.81 12.21 67.12 12.44L67.12 12.44L67.12 12.44Q67.42 12.67 67.91 12.84L67.91 12.84L67.91 12.84Q68.39 13.01 68.96 13.01L68.96 13.01L68.96 13.01Q70.01 13.01 70.65 12.45L70.65 12.45L70.65 12.45Q71.29 11.90 71.29 11.00L71.29 11.00L71.29 11.00Q71.29 10.35 70.85 9.90L70.85 9.90L70.85 9.90Q70.42 9.46 69.86 9.27L69.86 9.27L69.86 9.27Q69.30 9.09 68.44 8.77L68.44 8.77L68.44 8.77Q67.58 8.46 67.03 8.13L67.03 8.13L67.03 8.13Q65.76 7.38 65.76 6.08L65.76 6.08L65.76 6.08Q65.76 4.83 66.66 4.08L66.66 4.08L66.66 4.08Q67.56 3.33 69.01 3.33L69.01 3.33L69.01 3.33Q69.54 3.33 70.27 3.56L70.27 3.56L70.27 3.56Q71.01 3.79 71.02 3.79L71.02 3.79L71.02 3.79Q71.06 3.79 71.18 3.74L71.18 3.74L71.18 3.74Q71.29 3.68 71.34 3.68L71.34 3.68L71.34 3.68Q71.53 3.68 71.55 3.79L71.55 3.79L71.55 3.79Q71.85 5.49 71.85 5.70L71.85 5.70L71.85 5.70Q71.85 6.09 71.65 6.09L71.65 6.09L71.65 6.09Q71.53 6.09 71.46 5.89L71.46 5.89L71.46 5.89Q71.29 5.49 71.13 5.24L71.13 5.24L71.13 5.24Q70.97 4.98 70.90 4.91L70.90 4.91L70.90 4.91Q70.83 4.84 70.53 4.58L70.53 4.58L70.53 4.58Q69.78 3.91 68.70 3.91L68.70 3.91L68.70 3.91Q67.83 3.91 67.24 4.33L67.24 4.33L67.24 4.33Q66.65 4.75 66.65 5.46L66.65 5.46L66.65 5.46Q66.65 6.09 67.00 6.50L67.00 6.50L67.00 6.50Q67.34 6.90 67.91 7.13L67.91 7.13L67.91 7.13Q68.49 7.35 69.12 7.55L69.12 7.55L69.12 7.55Q69.75 7.74 70.45 8.09L70.45 8.09L70.45 8.09Q71.16 8.44 71.62 8.93L71.62 8.93L71.62 8.93Q72.18 9.53 72.18 10.43L72.18 10.43L72.18 10.43Q72.18 11.90 71.25 12.76L71.25 12.76L71.25 12.76Q70.31 13.62 68.92 13.62L68.92 13.62L68.92 13.62Q67.96 13.62 67.37 13.52L67.37 13.52L67.37 13.52Q66.78 13.41 66.16 13.09L66.16 13.09L66.16 13.09Q65.98 12.98 65.73 12.00L65.73 12.00L65.73 12.00Q65.48 11.02 65.48 10.82ZM80.28 5.32L80.28 5.32L80.28 5.32Q80.28 4.76 80.42 3.88L80.42 3.88L80.42 3.88Q80.42 3.85 80.42 3.78L80.42 3.78L80.42 3.78Q80.43 3.71 80.44 3.69L80.44 3.69L80.44 3.69Q80.44 3.67 80.45 3.62L80.45 3.62L80.45 3.62Q80.46 3.57 80.47 3.55L80.47 3.55L80.47 3.55Q80.49 3.53 80.51 3.49L80.51 3.49L80.51 3.49Q80.53 3.46 80.56 3.44L80.56 3.44L80.56 3.44Q80.58 3.43 80.63 3.42L80.63 3.42L80.63 3.42Q80.67 3.40 80.72 3.39L80.72 3.39L80.72 3.39Q80.78 3.39 80.85 3.39L80.85 3.39L80.85 3.39Q81.07 3.39 82.03 3.44L82.03 3.44L82.03 3.44Q82.99 3.50 84.80 3.50L84.80 3.50L84.80 3.50Q87.88 3.50 89.11 3.43L89.11 3.43L89.11 3.43Q89.12 3.43 89.16 3.42L89.16 3.42L89.16 3.42Q89.19 3.42 89.21 3.42L89.21 3.42L89.21 3.42Q89.36 3.42 89.42 3.50L89.42 3.50L89.42 3.50Q89.47 3.58 89.47 3.65L89.47 3.65L89.47 3.65Q89.47 3.75 89.52 4.24L89.52 4.24L89.52 4.24Q89.56 4.73 89.56 4.79L89.56 4.79L89.56 4.79Q89.56 5.14 89.52 5.23L89.52 5.23L89.52 5.23Q89.47 5.32 89.33 5.32L89.33 5.32L89.33 5.32Q89.22 5.32 89.18 5.15L89.18 5.15L89.18 5.15Q89.07 4.75 88.98 4.60L88.98 4.60L88.98 4.60Q88.90 4.45 88.62 4.34L88.62 4.34L88.62 4.34Q88.34 4.23 87.77 4.23L87.77 4.23L85.95 4.23L85.95 4.23Q85.61 4.23 85.53 4.36L85.53 4.36L85.53 4.36Q85.46 4.49 85.46 5.12L85.46 5.12L85.46 5.81L85.46 5.81Q85.46 7.69 85.44 9.11L85.44 9.11L85.44 9.11Q85.41 10.54 85.41 10.93L85.41 10.93L85.41 10.93Q85.41 11.13 85.41 11.43L85.41 11.43L85.41 11.43Q85.40 11.73 85.40 11.84L85.40 11.84L85.40 11.84Q85.40 12.45 85.60 12.64L85.60 12.64L85.60 12.64Q85.78 12.81 86.00 12.90L86.00 12.90L86.00 12.90Q86.23 12.99 86.39 13.01L86.39 13.01L86.39 13.01Q86.55 13.02 86.66 13.08L86.66 13.08L86.66 13.08Q86.77 13.13 86.77 13.26L86.77 13.26L86.77 13.26Q86.77 13.41 86.70 13.45L86.70 13.45L86.70 13.45Q86.63 13.50 86.44 13.50L86.44 13.50L86.44 13.50Q86.27 13.50 85.69 13.44L85.69 13.44L85.69 13.44Q85.12 13.38 84.88 13.38L84.88 13.38L84.88 13.38Q84.71 13.38 84.20 13.43L84.20 13.43L84.20 13.43Q83.69 13.48 83.45 13.48L83.45 13.48L83.45 13.48Q82.94 13.48 82.94 13.26L82.94 13.26L82.94 13.26Q82.94 13.12 83.02 13.07L83.02 13.07L83.02 13.07Q83.10 13.02 83.35 12.98L83.35 12.98L83.35 12.98Q83.59 12.95 83.66 12.94L83.66 12.94L83.66 12.94Q84.14 12.82 84.20 12.38L84.20 12.38L84.20 12.38Q84.34 11.14 84.34 7.08L84.34 7.08L84.32 4.58L84.32 4.58Q84.32 4.31 84.17 4.25L84.17 4.25L84.17 4.25Q84.01 4.19 83.26 4.19L83.26 4.19L83.26 4.19Q82.28 4.19 81.78 4.24L81.78 4.24L81.78 4.24Q81.28 4.30 81.20 4.35L81.20 4.35L81.20 4.35Q81.12 4.40 81.00 4.54L81.00 4.54L81.00 4.54Q80.88 4.70 80.80 4.91L80.80 4.91L80.80 4.91Q80.72 5.11 80.70 5.24L80.70 5.24L80.70 5.24Q80.68 5.38 80.62 5.47L80.62 5.47L80.62 5.47Q80.56 5.56 80.43 5.56L80.43 5.56L80.43 5.56Q80.28 5.56 80.28 5.32ZM97.12 3.71L97.12 3.71L97.12 3.71Q97.12 3.50 97.51 3.50L97.51 3.50L97.51 3.50Q97.65 3.50 98.15 3.53L98.15 3.53L98.15 3.53Q98.66 3.56 99.09 3.56L99.09 3.56L99.09 3.56Q99.36 3.56 99.60 3.54L99.60 3.54L99.60 3.54Q99.85 3.53 100.32 3.53L100.32 3.53L100.32 3.53Q100.70 3.53 100.70 3.72L100.70 3.72L100.70 3.72Q100.70 3.84 100.06 4.10L100.06 4.10L100.06 4.10Q99.61 4.28 99.61 5.71L99.61 5.71L99.61 5.71Q99.61 7.60 99.59 9.05L99.59 9.05L99.59 9.05Q99.57 10.50 99.57 10.89L99.57 10.89L99.57 10.89Q99.57 12.07 99.92 12.59L99.92 12.59L99.92 12.59Q100.23 13.02 100.59 13.02L100.59 13.02L100.59 13.02Q100.62 13.02 100.73 13.03L100.73 13.03L100.73 13.03Q100.84 13.03 100.87 13.03L100.87 13.03L100.87 13.03Q100.97 13.03 101.07 13.08L101.07 13.08L101.07 13.08Q101.16 13.13 101.16 13.19L101.16 13.19L101.16 13.19Q101.16 13.34 101.09 13.39L101.09 13.39L101.09 13.39Q101.01 13.44 100.81 13.44L100.81 13.44L100.81 13.44Q100.39 13.44 100.04 13.41L100.04 13.41L100.04 13.41Q99.68 13.38 99.48 13.38L99.48 13.38L99.48 13.38Q99.09 13.38 98.63 13.42L98.63 13.42L98.63 13.42Q98.17 13.45 97.94 13.45L97.94 13.45L97.94 13.45Q97.31 13.45 97.31 13.24L97.31 13.24L97.31 13.24Q97.31 13.12 97.45 13.07L97.45 13.07L97.45 13.07Q97.58 13.02 97.75 13.00L97.75 13.00L97.75 13.00Q97.92 12.98 98.10 12.82L98.10 12.82L98.10 12.82Q98.28 12.66 98.35 12.35L98.35 12.35L98.35 12.35Q98.38 12.25 98.44 10.76L98.44 10.76L98.44 10.76Q98.50 9.27 98.50 8.61L98.50 8.61L98.50 7.81L98.50 7.81Q98.50 7.63 98.51 7.12L98.51 7.12L98.51 7.12Q98.52 6.61 98.52 6.30L98.52 6.30L98.52 5.66L98.52 5.66Q98.52 5.04 98.46 4.63L98.46 4.63L98.46 4.63Q98.42 4.30 98.09 4.12L98.09 4.12L98.09 4.12Q97.76 3.93 97.41 3.92L97.41 3.92L97.41 3.92Q97.12 3.91 97.12 3.71ZM108.71 13.33L108.71 13.33L108.71 13.33Q108.71 13.13 108.92 13.06L108.92 13.06L108.92 13.06Q109.37 12.89 109.70 12.31L109.70 12.31L109.70 12.31Q110.04 11.73 111.37 8.83L111.37 8.83L111.37 8.83Q112.74 5.87 113.79 3.63L113.79 3.63L113.79 3.63Q113.89 3.42 113.97 3.36L113.97 3.36L113.97 3.36Q114.04 3.30 114.21 3.30L114.21 3.30L114.21 3.30Q114.34 3.30 114.38 3.36L114.38 3.36L114.38 3.36Q114.42 3.42 114.56 3.82L114.56 3.82L114.56 3.82Q114.65 4.06 114.71 4.23L114.71 4.23L114.71 4.23Q114.77 4.40 114.91 4.77L114.91 4.77L114.91 4.77Q115.05 5.15 115.22 5.56L115.22 5.56L115.22 5.56Q115.67 6.66 116.77 9.22L116.77 9.22L116.77 9.22Q117.87 11.77 117.96 11.98L117.96 11.98L117.96 11.98Q118.20 12.46 118.50 12.71L118.50 12.71L118.50 12.71Q118.79 12.95 119.01 12.97L119.01 12.97L119.01 12.97Q119.22 12.99 119.37 13.04L119.37 13.04L119.37 13.04Q119.52 13.09 119.52 13.26L119.52 13.26L119.52 13.26Q119.52 13.47 119.14 13.47L119.14 13.47L119.14 13.47Q118.99 13.47 118.54 13.43L118.54 13.43L118.54 13.43Q118.09 13.38 117.88 13.38L117.88 13.38L117.88 13.38Q117.61 13.38 117.19 13.41L117.19 13.41L117.19 13.41Q116.77 13.44 116.58 13.44L116.58 13.44L116.58 13.44Q116.14 13.44 116.02 13.40L116.02 13.40L116.02 13.40Q115.91 13.37 115.91 13.24L115.91 13.24L115.91 13.24Q115.91 13.15 116.02 13.08L116.02 13.08L116.02 13.08Q116.13 13.02 116.26 13.00L116.26 13.00L116.26 13.00Q116.38 12.98 116.49 12.87L116.49 12.87L116.49 12.87Q116.61 12.77 116.61 12.59L116.61 12.59L116.61 12.59Q116.61 12.28 116.26 11.33L116.26 11.33L116.26 11.33Q115.91 10.37 115.67 9.93L115.67 9.93L115.67 9.93Q115.54 9.69 115.09 9.69L115.09 9.69L115.09 9.69Q115.02 9.69 114.48 9.70L114.48 9.70L114.48 9.70Q113.93 9.72 113.40 9.72L113.40 9.72L112.66 9.72L112.66 9.72Q112.03 9.72 111.87 9.79L111.87 9.79L111.87 9.79Q111.71 9.86 111.58 10.12L111.58 10.12L111.58 10.12Q111.50 10.30 111.30 10.70L111.30 10.70L111.30 10.70Q111.10 11.10 111.03 11.26L111.03 11.26L111.03 11.26Q110.96 11.41 110.86 11.65L110.86 11.65L110.86 11.65Q110.75 11.90 110.72 12.05L110.72 12.05L110.72 12.05Q110.68 12.19 110.68 12.31L110.68 12.31L110.68 12.31Q110.68 12.63 110.84 12.80L110.84 12.80L110.84 12.80Q111.01 12.96 111.20 12.98L111.20 12.98L111.20 12.98Q111.40 13.01 111.56 13.06L111.56 13.06L111.56 13.06Q111.72 13.12 111.72 13.26L111.72 13.26L111.72 13.26Q111.72 13.36 111.68 13.40L111.68 13.40L111.68 13.40Q111.64 13.45 111.48 13.45L111.48 13.45L111.48 13.45Q111.40 13.45 111.00 13.45L111.00 13.45L111.00 13.45Q110.60 13.44 110.32 13.44L110.32 13.44L110.32 13.44Q110.01 13.44 109.63 13.47L109.63 13.47L109.63 13.47Q109.24 13.50 109.12 13.50L109.12 13.50L109.12 13.50Q108.71 13.50 108.71 13.33ZM112.22 8.71L112.22 8.71L112.22 8.71Q112.22 8.89 112.35 8.93L112.35 8.93L112.35 8.93Q112.48 8.97 112.94 8.97L112.94 8.97L113.37 8.97L114.70 8.96L114.70 8.96Q115.25 8.96 115.25 8.74L115.25 8.74L115.25 8.74Q115.25 8.55 114.56 7.01L114.56 7.01L114.56 7.01Q113.88 5.46 113.69 5.46L113.69 5.46L113.69 5.46Q113.57 5.46 112.90 7.01L112.90 7.01L112.90 7.01Q112.22 8.55 112.22 8.71ZM127.08 3.71L127.08 3.71L127.08 3.71Q127.08 3.46 127.46 3.46L127.46 3.46L127.46 3.46Q127.51 3.46 127.64 3.47L127.64 3.47L127.64 3.47Q127.76 3.49 127.83 3.49L127.83 3.49L127.83 3.49Q127.97 3.49 128.36 3.51L128.36 3.51L128.36 3.51Q128.74 3.54 129.05 3.54L129.05 3.54L129.05 3.54Q129.49 3.54 129.98 3.51L129.98 3.51L129.98 3.51Q130.47 3.49 130.52 3.49L130.52 3.49L130.52 3.49Q130.76 3.49 130.76 3.63L130.76 3.63L130.76 3.63Q130.76 3.82 130.59 3.88L130.59 3.88L130.59 3.88Q130.42 3.95 130.22 3.97L130.22 3.97L130.22 3.97Q130.02 3.99 129.83 4.28L129.83 4.28L129.83 4.28Q129.64 4.56 129.61 5.14L129.61 5.14L129.61 5.14Q129.58 5.68 129.54 8.19L129.54 8.19L129.54 8.19Q129.50 10.70 129.50 10.99L129.50 10.99L129.50 11.55L129.50 11.55Q129.50 12.56 129.84 12.66L129.84 12.66L129.84 12.66Q130.19 12.77 130.44 12.77L130.44 12.77L130.44 12.77Q131.49 12.77 132.28 12.67L132.28 12.67L132.28 12.67Q133.07 12.57 133.47 12.42L133.47 12.42L133.47 12.42Q133.87 12.28 134.13 12.10L134.13 12.10L134.13 12.10Q134.40 11.93 134.48 11.78L134.48 11.78L134.48 11.78Q134.55 11.63 134.63 11.54L134.63 11.54L134.63 11.54Q134.71 11.44 134.79 11.44L134.79 11.44L134.79 11.44Q134.96 11.44 134.96 11.68L134.96 11.68L134.96 11.68Q134.96 12.28 134.36 12.89L134.36 12.89L134.36 12.89Q133.76 13.51 133.31 13.51L133.31 13.51L133.31 13.51Q132.30 13.51 131.03 13.44L131.03 13.44L131.03 13.44Q129.77 13.37 129.46 13.37L129.46 13.37L129.46 13.37Q129.07 13.37 128.55 13.43L128.55 13.43L128.55 13.43Q128.04 13.48 127.71 13.48L127.71 13.48L127.71 13.48Q127.30 13.48 127.30 13.31L127.30 13.31L127.30 13.31Q127.30 13.22 127.38 13.15L127.38 13.15L127.38 13.15Q127.46 13.09 127.53 13.09L127.53 13.09L127.53 13.09Q127.74 13.09 127.93 12.95L127.93 12.95L127.93 12.95Q128.18 12.75 128.30 12.23L128.30 12.23L128.30 12.23Q128.41 11.70 128.41 10.21L128.41 10.21L128.41 8.47L128.41 8.47Q128.41 8.09 128.43 7.29L128.43 7.29L128.43 7.29Q128.45 6.50 128.45 6.05L128.45 6.05L128.45 6.05Q128.45 5.67 128.42 4.77L128.42 4.77L128.42 4.77Q128.41 4.37 128.07 4.14L128.07 4.14L128.07 4.14Q127.74 3.92 127.29 3.91L127.29 3.91L127.29 3.91Q127.15 3.91 127.11 3.86L127.11 3.86L127.11 3.86Q127.08 3.81 127.08 3.71ZM152.50 3.70L152.50 3.70L152.50 3.70Q152.50 3.47 152.91 3.47L152.91 3.47L155.23 3.47L155.23 3.47Q155.55 3.47 155.97 3.45L155.97 3.45L155.97 3.45Q156.39 3.43 156.63 3.43L156.63 3.43L156.63 3.43Q157.89 3.43 158.79 4.07L158.79 4.07L158.79 4.07Q159.68 4.70 159.68 5.78L159.68 5.78L159.68 5.78Q159.68 6.50 159.41 7.03L159.41 7.03L159.41 7.03Q159.14 7.57 158.81 7.81L158.81 7.81L158.81 7.81Q158.48 8.05 158.21 8.22L158.21 8.22L158.21 8.22Q157.93 8.40 157.93 8.46L157.93 8.46L157.93 8.46Q157.93 8.62 159.11 10.27L159.11 10.27L159.11 10.27Q160.29 11.91 160.72 12.38L160.72 12.38L160.72 12.38Q161.25 13.03 162.01 13.03L162.01 13.03L162.01 13.03Q162.20 13.03 162.20 13.20L162.20 13.20L162.20 13.20Q162.20 13.41 162.04 13.48L162.04 13.48L162.04 13.48Q161.87 13.55 161.17 13.55L161.17 13.55L161.17 13.55Q160.51 13.55 159.96 13.23L159.96 13.23L159.96 13.23Q159.26 12.82 157.60 10.09L157.60 10.09L157.60 10.09Q157.50 9.94 157.46 9.87L157.46 9.87L157.46 9.87Q156.79 8.78 156.42 8.78L156.42 8.78L156.13 8.78L155.27 8.78L155.27 8.78Q155.11 8.78 155.07 8.92L155.07 8.92L155.07 8.92Q155.04 9.06 155.04 9.77L155.04 9.77L155.04 9.77Q155.04 10.44 155.04 10.88L155.04 10.88L155.04 10.88Q155.04 11.31 155.04 11.43L155.04 11.43L155.04 11.43Q155.05 11.55 155.05 11.63L155.05 11.63L155.05 11.63Q155.05 11.70 155.05 11.75L155.05 11.75L155.05 11.75Q155.05 12.32 155.32 12.63L155.32 12.63L155.32 12.63Q155.58 12.95 155.91 13.00L155.91 13.00L155.91 13.00Q156.24 13.05 156.51 13.11L156.51 13.11L156.51 13.11Q156.77 13.17 156.77 13.31L156.77 13.31L156.77 13.31Q156.77 13.54 156.52 13.54L156.52 13.54L156.52 13.54Q156.51 13.54 155.55 13.49L155.55 13.49L155.55 13.49Q154.60 13.44 154.52 13.44L154.52 13.44L154.52 13.44Q154.11 13.44 153.55 13.47L153.55 13.47L153.55 13.47Q152.99 13.50 152.98 13.50L152.98 13.50L152.98 13.50Q152.68 13.50 152.68 13.27L152.68 13.27L152.68 13.27Q152.68 13.12 152.87 13.05L152.87 13.05L152.87 13.05Q153.05 12.99 153.27 12.96L153.27 12.96L153.27 12.96Q153.50 12.94 153.68 12.66L153.68 12.66L153.68 12.66Q153.86 12.38 153.86 11.86L153.86 11.86L153.86 11.86Q153.86 11.49 153.87 9.90L153.87 9.90L153.87 9.90Q153.87 8.30 153.87 7.45L153.87 7.45L153.87 7.45Q153.87 6.58 153.87 5.86L153.87 5.86L153.87 5.86Q153.86 5.14 153.86 5.08L153.86 5.08L153.86 5.08Q153.86 4.56 153.65 4.29L153.65 4.29L153.65 4.29Q153.44 4.02 153.18 3.98L153.18 3.98L153.18 3.98Q152.92 3.95 152.71 3.89L152.71 3.89L152.71 3.89Q152.50 3.84 152.50 3.70ZM155.04 5.54L155.04 5.94L155.04 5.94Q155.04 7.38 155.05 7.72L155.05 7.72L155.05 7.72Q155.06 8.06 155.15 8.12L155.15 8.12L155.15 8.12Q155.36 8.25 155.75 8.25L155.75 8.25L155.89 8.25L156.30 8.25L156.30 8.25Q157.49 8.25 158.00 7.70L158.00 7.70L158.00 7.70Q158.51 7.15 158.51 6.30L158.51 6.30L158.51 6.30Q158.51 5.43 157.83 4.72L157.83 4.72L157.83 4.72Q157.15 4.00 155.78 4.00L155.78 4.00L155.78 4.00Q155.26 4.00 155.15 4.28L155.15 4.28L155.15 4.28Q155.04 4.55 155.04 5.54L155.04 5.54ZM169.55 13.33L169.55 13.33L169.55 13.33Q169.55 13.13 169.76 13.06L169.76 13.06L169.76 13.06Q170.21 12.89 170.55 12.31L170.55 12.31L170.55 12.31Q170.88 11.73 172.21 8.83L172.21 8.83L172.21 8.83Q173.59 5.87 174.64 3.63L174.64 3.63L174.64 3.63Q174.73 3.42 174.81 3.36L174.81 3.36L174.81 3.36Q174.89 3.30 175.06 3.30L175.06 3.30L175.06 3.30Q175.18 3.30 175.22 3.36L175.22 3.36L175.22 3.36Q175.27 3.42 175.41 3.82L175.41 3.82L175.41 3.82Q175.49 4.06 175.55 4.23L175.55 4.23L175.55 4.23Q175.62 4.40 175.76 4.77L175.76 4.77L175.76 4.77Q175.90 5.15 176.06 5.56L176.06 5.56L176.06 5.56Q176.51 6.66 177.61 9.22L177.61 9.22L177.61 9.22Q178.71 11.77 178.81 11.98L178.81 11.98L178.81 11.98Q179.05 12.46 179.34 12.71L179.34 12.71L179.34 12.71Q179.63 12.95 179.85 12.97L179.85 12.97L179.85 12.97Q180.07 12.99 180.21 13.04L180.21 13.04L180.21 13.04Q180.36 13.09 180.36 13.26L180.36 13.26L180.36 13.26Q180.36 13.47 179.98 13.47L179.98 13.47L179.98 13.47Q179.83 13.47 179.38 13.43L179.38 13.43L179.38 13.43Q178.93 13.38 178.72 13.38L178.72 13.38L178.72 13.38Q178.46 13.38 178.04 13.41L178.04 13.41L178.04 13.41Q177.62 13.44 177.42 13.44L177.42 13.44L177.42 13.44Q176.99 13.44 176.87 13.40L176.87 13.40L176.87 13.40Q176.75 13.37 176.75 13.24L176.75 13.24L176.75 13.24Q176.75 13.15 176.86 13.08L176.86 13.08L176.86 13.08Q176.97 13.02 177.10 13.00L177.10 13.00L177.10 13.00Q177.23 12.98 177.34 12.87L177.34 12.87L177.34 12.87Q177.45 12.77 177.45 12.59L177.45 12.59L177.45 12.59Q177.45 12.28 177.10 11.33L177.10 11.33L177.10 11.33Q176.75 10.37 176.51 9.93L176.51 9.93L176.51 9.93Q176.39 9.69 175.94 9.69L175.94 9.69L175.94 9.69Q175.87 9.69 175.32 9.70L175.32 9.70L175.32 9.70Q174.78 9.72 174.24 9.72L174.24 9.72L173.50 9.72L173.50 9.72Q172.87 9.72 172.71 9.79L172.71 9.79L172.71 9.79Q172.55 9.86 172.42 10.12L172.42 10.12L172.42 10.12Q172.34 10.30 172.14 10.70L172.14 10.70L172.14 10.70Q171.95 11.10 171.88 11.26L171.88 11.26L171.88 11.26Q171.81 11.41 171.70 11.65L171.70 11.65L171.70 11.65Q171.60 11.90 171.56 12.05L171.56 12.05L171.56 12.05Q171.53 12.19 171.53 12.31L171.53 12.31L171.53 12.31Q171.53 12.63 171.69 12.80L171.69 12.80L171.69 12.80Q171.85 12.96 172.05 12.98L172.05 12.98L172.05 12.98Q172.24 13.01 172.40 13.06L172.40 13.06L172.40 13.06Q172.56 13.12 172.56 13.26L172.56 13.26L172.56 13.26Q172.56 13.36 172.52 13.40L172.52 13.40L172.52 13.40Q172.48 13.45 172.33 13.45L172.33 13.45L172.33 13.45Q172.24 13.45 171.84 13.45L171.84 13.45L171.84 13.45Q171.44 13.44 171.16 13.44L171.16 13.44L171.16 13.44Q170.86 13.44 170.47 13.47L170.47 13.47L170.47 13.47Q170.09 13.50 169.96 13.50L169.96 13.50L169.96 13.50Q169.55 13.50 169.55 13.33ZM173.07 8.71L173.07 8.71L173.07 8.71Q173.07 8.89 173.19 8.93L173.19 8.93L173.19 8.93Q173.32 8.97 173.78 8.97L173.78 8.97L174.22 8.97L175.55 8.96L175.55 8.96Q176.09 8.96 176.09 8.74L176.09 8.74L176.09 8.74Q176.09 8.55 175.41 7.01L175.41 7.01L175.41 7.01Q174.72 5.46 174.54 5.46L174.54 5.46L174.54 5.46Q174.41 5.46 173.74 7.01L173.74 7.01L173.74 7.01Q173.07 8.55 173.07 8.71ZM187.92 3.71L187.92 3.71L187.92 3.71Q187.92 3.50 188.31 3.50L188.31 3.50L188.31 3.50Q188.45 3.50 188.96 3.53L188.96 3.53L188.96 3.53Q189.46 3.56 189.90 3.56L189.90 3.56L189.90 3.56Q190.16 3.56 190.41 3.54L190.41 3.54L190.41 3.54Q190.65 3.53 191.13 3.53L191.13 3.53L191.13 3.53Q191.51 3.53 191.51 3.72L191.51 3.72L191.51 3.72Q191.51 3.84 190.86 4.10L190.86 4.10L190.86 4.10Q190.41 4.28 190.41 5.71L190.41 5.71L190.41 5.71Q190.41 7.60 190.39 9.05L190.39 9.05L190.39 9.05Q190.37 10.50 190.37 10.89L190.37 10.89L190.37 10.89Q190.37 12.07 190.72 12.59L190.72 12.59L190.72 12.59Q191.03 13.02 191.39 13.02L191.39 13.02L191.39 13.02Q191.42 13.02 191.53 13.03L191.53 13.03L191.53 13.03Q191.65 13.03 191.67 13.03L191.67 13.03L191.67 13.03Q191.77 13.03 191.87 13.08L191.87 13.08L191.87 13.08Q191.97 13.13 191.97 13.19L191.97 13.19L191.97 13.19Q191.97 13.34 191.89 13.39L191.89 13.39L191.89 13.39Q191.81 13.44 191.62 13.44L191.62 13.44L191.62 13.44Q191.20 13.44 190.84 13.41L190.84 13.41L190.84 13.41Q190.48 13.38 190.29 13.38L190.29 13.38L190.29 13.38Q189.90 13.38 189.43 13.42L189.43 13.42L189.43 13.42Q188.97 13.45 188.75 13.45L188.75 13.45L188.75 13.45Q188.12 13.45 188.12 13.24L188.12 13.24L188.12 13.24Q188.12 13.12 188.25 13.07L188.25 13.07L188.25 13.07Q188.38 13.02 188.55 13.00L188.55 13.00L188.55 13.00Q188.72 12.98 188.90 12.82L188.90 12.82L188.90 12.82Q189.08 12.66 189.15 12.35L189.15 12.35L189.15 12.35Q189.18 12.25 189.24 10.76L189.24 10.76L189.24 10.76Q189.31 9.27 189.31 8.61L189.31 8.61L189.31 7.81L189.31 7.81Q189.31 7.63 189.31 7.12L189.31 7.12L189.31 7.12Q189.32 6.61 189.32 6.30L189.32 6.30L189.32 5.66L189.32 5.66Q189.32 5.04 189.27 4.63L189.27 4.63L189.27 4.63Q189.22 4.30 188.89 4.12L188.89 4.12L188.89 4.12Q188.57 3.93 188.22 3.92L188.22 3.92L188.22 3.92Q187.92 3.91 187.92 3.71ZM199.51 3.77L199.51 3.77L199.51 3.77Q199.51 3.68 199.61 3.60L199.61 3.60L199.61 3.60Q199.71 3.53 199.86 3.53L199.86 3.53L199.86 3.53Q199.95 3.53 200.14 3.54L200.14 3.54L200.14 3.54Q200.34 3.54 200.40 3.54L200.40 3.54L200.40 3.54Q200.61 3.54 200.79 3.53L200.79 3.53L200.79 3.53Q200.97 3.51 201.08 3.51L201.08 3.51L201.08 3.51Q201.21 3.51 201.38 3.59L201.38 3.59L201.38 3.59Q201.54 3.67 201.57 3.75L201.57 3.75L201.57 3.75Q201.60 3.79 201.73 3.94L201.73 3.94L201.73 3.94Q201.85 4.09 202.06 4.33L202.06 4.33L202.06 4.33Q202.27 4.56 202.44 4.79L202.44 4.79L202.44 4.79Q204.34 7.27 207.54 10.77L207.54 10.77L207.54 10.77Q207.62 10.86 207.74 10.99L207.74 10.99L207.74 10.99Q207.86 11.12 207.91 11.18L207.91 11.18L207.91 11.18Q207.96 11.24 208.01 11.30L208.01 11.30L208.01 11.30Q208.07 11.35 208.10 11.38L208.10 11.38L208.10 11.38Q208.14 11.40 208.17 11.40L208.17 11.40L208.17 11.40Q208.31 11.40 208.31 10.53L208.31 10.53L208.31 8.89L208.31 8.89Q208.31 7.95 208.30 7.31L208.30 7.31L208.30 7.31Q208.29 6.66 208.28 6.38L208.28 6.38L208.28 6.38Q208.28 6.09 208.28 6.02L208.28 6.02L208.28 5.92L208.28 5.92Q208.28 5.45 208.21 5.11L208.21 5.11L208.21 5.11Q208.15 4.77 208.07 4.59L208.07 4.59L208.07 4.59Q207.98 4.41 207.82 4.28L207.82 4.28L207.82 4.28Q207.66 4.16 207.55 4.12L207.55 4.12L207.55 4.12Q207.44 4.09 207.23 4.05L207.23 4.05L207.23 4.05Q207.02 4.00 206.93 3.98L206.93 3.98L206.93 3.98Q206.65 3.89 206.65 3.74L206.65 3.74L206.65 3.74Q206.65 3.53 206.92 3.53L206.92 3.53L206.92 3.53Q207.00 3.53 207.59 3.54L207.59 3.54L207.59 3.54Q208.18 3.54 208.25 3.54L208.25 3.54L208.25 3.54Q208.59 3.54 209.00 3.53L209.00 3.53L209.00 3.53Q209.41 3.51 209.51 3.51L209.51 3.51L209.51 3.51Q209.75 3.51 209.84 3.56L209.84 3.56L209.84 3.56Q209.93 3.61 209.93 3.75L209.93 3.75L209.93 3.75Q209.93 3.81 209.85 3.86L209.85 3.86L209.85 3.86Q209.78 3.91 209.69 3.94L209.69 3.94L209.69 3.94Q209.61 3.98 209.52 4.00L209.52 4.00L209.44 4.03L209.44 4.03Q208.98 4.28 208.98 5.61L208.98 5.61L208.98 6.15L208.98 6.15Q208.98 7.21 208.90 9.83L208.90 9.83L208.90 9.83Q208.82 12.46 208.82 13.08L208.82 13.08L208.82 13.36L208.82 13.36Q208.82 13.68 208.63 13.68L208.63 13.68L208.63 13.68Q208.50 13.68 208.40 13.58L208.40 13.58L208.40 13.58Q203.76 8.19 202.85 7.17L202.85 7.17L202.85 7.17Q201.95 6.16 201.85 6.16L201.85 6.16L201.85 6.16Q201.71 6.16 201.71 7.11L201.71 7.11L201.71 7.11Q201.71 8.44 201.66 9.97L201.66 9.97L201.66 9.97Q201.60 11.51 201.60 11.65L201.60 11.65L201.60 11.65Q201.60 12.28 201.82 12.61L201.82 12.61L201.82 12.61Q202.03 12.94 202.29 12.98L202.29 12.98L202.29 12.98Q202.54 13.02 202.75 13.07L202.75 13.07L202.75 13.07Q202.97 13.12 202.97 13.26L202.97 13.26L202.97 13.26Q202.97 13.41 202.92 13.45L202.92 13.45L202.92 13.45Q202.87 13.50 202.75 13.50L202.75 13.50L202.75 13.50Q202.65 13.50 202.31 13.48L202.31 13.48L202.31 13.48Q201.96 13.47 201.25 13.47L201.25 13.47L201.25 13.47Q201.12 13.47 200.73 13.48L200.73 13.48L200.73 13.48Q200.34 13.50 200.06 13.50L200.06 13.50L200.06 13.50Q199.75 13.50 199.75 13.27L199.75 13.27L199.75 13.27Q199.75 13.15 199.93 13.11L199.93 13.11L199.93 13.11Q200.12 13.08 200.38 12.89L200.38 12.89L200.38 12.89Q200.65 12.71 200.79 12.21L200.79 12.21L200.79 12.21Q200.87 11.89 201.00 9.60L201.00 9.60L201.00 9.60Q201.12 7.32 201.12 6.45L201.12 6.45L201.12 6.45Q201.12 5.25 200.79 4.65L200.79 4.65L200.79 4.65Q200.45 4.06 199.70 3.98L199.70 3.98L199.70 3.98Q199.51 3.96 199.51 3.77ZM217.69 3.64L217.69 3.64L217.69 3.64Q217.69 3.51 217.80 3.49L217.80 3.49L217.80 3.49Q217.92 3.47 218.40 3.47L218.40 3.47L219.62 3.47L219.62 3.47Q219.97 3.47 220.91 3.44L220.91 3.44L220.91 3.44Q221.84 3.42 222.35 3.42L222.35 3.42L222.35 3.42Q223.31 3.42 224.28 3.71L224.28 3.71L224.28 3.71Q225.25 4.00 226.06 4.56L226.06 4.56L226.06 4.56Q226.87 5.11 227.37 6.00L227.37 6.00L227.37 6.00Q227.88 6.89 227.88 7.98L227.88 7.98L227.88 7.98Q227.88 8.96 227.74 9.68L227.74 9.68L227.74 9.68Q227.61 10.40 227.30 10.93L227.30 10.93L227.30 10.93Q227.00 11.45 226.69 11.78L226.69 11.78L226.69 11.78Q226.38 12.11 225.85 12.56L225.85 12.56L225.85 12.56Q225.43 12.89 224.63 13.19L224.63 13.19L224.63 13.19Q223.83 13.48 222.99 13.48L222.99 13.48L222.99 13.48Q222.91 13.48 221.56 13.45L221.56 13.45L221.56 13.45Q220.22 13.41 219.63 13.41L219.63 13.41L219.63 13.41Q219.14 13.41 218.72 13.45L218.72 13.45L218.72 13.45Q218.30 13.48 218.23 13.48L218.23 13.48L218.23 13.48Q217.90 13.48 217.90 13.30L217.90 13.30L217.90 13.30Q217.90 13.19 217.94 13.14L217.94 13.14L217.94 13.14Q217.99 13.09 218.15 13.05L218.15 13.05L218.15 13.05Q218.32 13.01 218.39 12.98L218.39 12.98L218.39 12.98Q218.61 12.88 218.80 12.61L218.80 12.61L218.80 12.61Q218.99 12.33 218.99 12.07L218.99 12.07L218.99 12.07Q218.99 11.28 218.99 10.07L218.99 10.07L218.99 10.07Q219.00 8.85 219.00 8.27L219.00 8.27L219.00 8.27Q219.00 7.77 218.99 6.70L218.99 6.70L218.99 6.70Q218.99 5.63 218.99 4.72L218.99 4.72L218.99 4.72Q218.99 4.48 218.76 4.23L218.76 4.23L218.76 4.23Q218.53 3.99 218.25 3.98L218.25 3.98L218.25 3.98Q218.05 3.96 217.96 3.95L217.96 3.95L217.96 3.95Q217.87 3.93 217.78 3.86L217.78 3.86L217.78 3.86Q217.69 3.78 217.69 3.64ZM220.16 11.47L220.16 11.47L220.16 11.47Q220.16 11.73 220.17 11.90L220.17 11.90L220.17 11.90Q220.18 12.07 220.23 12.21L220.23 12.21L220.23 12.21Q220.28 12.35 220.30 12.40L220.30 12.40L220.30 12.40Q220.33 12.46 220.47 12.53L220.47 12.53L220.47 12.53Q220.61 12.60 220.69 12.62L220.69 12.62L220.69 12.62Q220.77 12.64 221.02 12.71L221.02 12.71L221.02 12.71Q221.27 12.78 221.44 12.82L221.44 12.82L221.44 12.82Q221.93 12.96 222.46 12.96L222.46 12.96L222.74 12.96L222.74 12.96Q223.69 12.96 224.36 12.69L224.36 12.69L224.36 12.69Q225.04 12.42 225.65 11.83L225.65 11.83L225.65 11.83Q226.69 10.84 226.69 8.61L226.69 8.61L226.69 8.61Q226.69 7.49 226.25 6.58L226.25 6.58L226.25 6.58Q225.81 5.67 225.09 5.13L225.09 5.13L225.09 5.13Q224.38 4.59 223.55 4.30L223.55 4.30L223.55 4.30Q222.73 4.02 221.89 4.02L221.89 4.02L221.89 4.02Q221.51 4.02 221.33 4.02L221.33 4.02L221.33 4.02Q221.16 4.02 220.93 4.05L220.93 4.05L220.93 4.05Q220.70 4.09 220.62 4.11L220.62 4.11L220.62 4.11Q220.54 4.13 220.43 4.25L220.43 4.25L220.43 4.25Q220.32 4.37 220.30 4.45L220.30 4.45L220.30 4.45Q220.28 4.54 220.24 4.78L220.24 4.78L220.24 4.78Q220.21 5.03 220.21 5.21L220.21 5.21L220.21 5.21Q220.21 5.39 220.21 5.80L220.21 5.80L220.21 5.80Q220.21 6.10 220.19 7.24L220.19 7.24L220.19 7.24Q220.18 8.39 220.18 8.48L220.18 8.48L220.18 8.48Q220.18 9.32 220.17 10.30L220.17 10.30L220.17 10.30Q220.16 11.28 220.16 11.47ZM235.77 3.70L235.77 3.70L235.77 3.70Q235.77 3.47 236.18 3.47L236.18 3.47L238.50 3.47L238.50 3.47Q238.83 3.47 239.25 3.45L239.25 3.45L239.25 3.45Q239.67 3.43 239.90 3.43L239.90 3.43L239.90 3.43Q241.16 3.43 242.06 4.07L242.06 4.07L242.06 4.07Q242.96 4.70 242.96 5.78L242.96 5.78L242.96 5.78Q242.96 6.50 242.68 7.03L242.68 7.03L242.68 7.03Q242.41 7.57 242.08 7.81L242.08 7.81L242.08 7.81Q241.75 8.05 241.48 8.22L241.48 8.22L241.48 8.22Q241.21 8.40 241.21 8.46L241.21 8.46L241.21 8.46Q241.21 8.62 242.38 10.27L242.38 10.27L242.38 10.27Q243.56 11.91 243.99 12.38L243.99 12.38L243.99 12.38Q244.52 13.03 245.28 13.03L245.28 13.03L245.28 13.03Q245.48 13.03 245.48 13.20L245.48 13.20L245.48 13.20Q245.48 13.41 245.31 13.48L245.31 13.48L245.31 13.48Q245.14 13.55 244.44 13.55L244.44 13.55L244.44 13.55Q243.78 13.55 243.24 13.23L243.24 13.23L243.24 13.23Q242.54 12.82 240.87 10.09L240.87 10.09L240.87 10.09Q240.77 9.94 240.73 9.87L240.73 9.87L240.73 9.87Q240.06 8.78 239.69 8.78L239.69 8.78L239.40 8.78L238.55 8.78L238.55 8.78Q238.38 8.78 238.34 8.92L238.34 8.92L238.34 8.92Q238.31 9.06 238.31 9.77L238.31 9.77L238.31 9.77Q238.31 10.44 238.31 10.88L238.31 10.88L238.31 10.88Q238.31 11.31 238.31 11.43L238.31 11.43L238.31 11.43Q238.32 11.55 238.32 11.63L238.32 11.63L238.32 11.63Q238.32 11.70 238.32 11.75L238.32 11.75L238.32 11.75Q238.32 12.32 238.59 12.63L238.59 12.63L238.59 12.63Q238.85 12.95 239.18 13.00L239.18 13.00L239.18 13.00Q239.51 13.05 239.78 13.11L239.78 13.11L239.78 13.11Q240.04 13.17 240.04 13.31L240.04 13.31L240.04 13.31Q240.04 13.54 239.79 13.54L239.79 13.54L239.79 13.54Q239.78 13.54 238.83 13.49L238.83 13.49L238.83 13.49Q237.87 13.44 237.79 13.44L237.79 13.44L237.79 13.44Q237.38 13.44 236.82 13.47L236.82 13.47L236.82 13.47Q236.26 13.50 236.25 13.50L236.25 13.50L236.25 13.50Q235.96 13.50 235.96 13.27L235.96 13.27L235.96 13.27Q235.96 13.12 236.14 13.05L236.14 13.05L236.14 13.05Q236.32 12.99 236.54 12.96L236.54 12.96L236.54 12.96Q236.77 12.94 236.95 12.66L236.95 12.66L236.95 12.66Q237.13 12.38 237.13 11.86L237.13 11.86L237.13 11.86Q237.13 11.49 237.14 9.90L237.14 9.90L237.14 9.90Q237.15 8.30 237.15 7.45L237.15 7.45L237.15 7.45Q237.15 6.58 237.14 5.86L237.14 5.86L237.14 5.86Q237.13 5.14 237.13 5.08L237.13 5.08L237.13 5.08Q237.13 4.56 236.92 4.29L236.92 4.29L236.92 4.29Q236.71 4.02 236.45 3.98L236.45 3.98L236.45 3.98Q236.19 3.95 235.98 3.89L235.98 3.89L235.98 3.89Q235.77 3.84 235.77 3.70ZM238.31 5.54L238.31 5.94L238.31 5.94Q238.31 7.38 238.32 7.72L238.32 7.72L238.32 7.72Q238.34 8.06 238.42 8.12L238.42 8.12L238.42 8.12Q238.63 8.25 239.02 8.25L239.02 8.25L239.16 8.25L239.57 8.25L239.57 8.25Q240.76 8.25 241.27 7.70L241.27 7.70L241.27 7.70Q241.78 7.15 241.78 6.30L241.78 6.30L241.78 6.30Q241.78 5.43 241.10 4.72L241.10 4.72L241.10 4.72Q240.42 4.00 239.05 4.00L239.05 4.00L239.05 4.00Q238.53 4.00 238.42 4.28L238.42 4.28L238.42 4.28Q238.31 4.55 238.31 5.54L238.31 5.54ZM252.76 8.69L252.76 8.69L252.76 8.69Q252.76 6.34 254.17 4.84L254.17 4.84L254.17 4.84Q255.58 3.33 258.17 3.33L258.17 3.33L258.17 3.33Q259.38 3.33 260.34 3.68L260.34 3.68L260.34 3.68Q261.31 4.03 261.87 4.54L261.87 4.54L261.87 4.54Q262.43 5.05 262.81 5.71L262.81 5.71L262.81 5.71Q263.19 6.37 263.33 6.92L263.33 6.92L263.33 6.92Q263.47 7.48 263.47 7.95L263.47 7.95L263.47 7.95Q263.47 9.86 262.72 11.16L262.72 11.16L262.72 11.16Q261.98 12.47 260.77 13.07L260.77 13.07L260.77 13.07Q259.56 13.66 257.98 13.66L257.98 13.66L257.98 13.66Q256.31 13.66 255.10 12.94L255.10 12.94L255.10 12.94Q253.89 12.21 253.32 11.10L253.32 11.10L253.32 11.10Q252.76 10.00 252.76 8.69ZM253.99 7.98L253.99 7.98L253.99 7.98Q253.99 8.54 254.14 9.19L254.14 9.19L254.14 9.19Q254.30 9.84 254.65 10.54L254.65 10.54L254.65 10.54Q255.00 11.23 255.49 11.78L255.49 11.78L255.49 11.78Q255.99 12.33 256.75 12.69L256.75 12.69L256.75 12.69Q257.52 13.05 258.43 13.05L258.43 13.05L258.43 13.05Q258.90 13.05 259.43 12.90L259.43 12.90L259.43 12.90Q259.95 12.75 260.47 12.45L260.47 12.45L260.47 12.45Q260.99 12.14 261.39 11.70L261.39 11.70L261.39 11.70Q261.80 11.26 262.06 10.62L262.06 10.62L262.06 10.62Q262.32 9.98 262.32 9.24L262.32 9.24L262.32 9.24Q262.32 6.71 260.99 5.30L260.99 5.30L260.99 5.30Q259.66 3.89 257.70 3.89L257.70 3.89L257.70 3.89Q256.16 3.89 255.07 4.93L255.07 4.93L255.07 4.93Q253.99 5.96 253.99 7.98ZM271.36 3.72L271.36 3.72L271.36 3.72Q271.36 3.50 271.68 3.50L271.68 3.50L271.68 3.50Q271.73 3.50 271.84 3.49L271.84 3.49L271.84 3.49Q271.95 3.49 272.20 3.49L272.20 3.49L272.20 3.49Q272.27 3.49 272.59 3.51L272.59 3.51L272.59 3.51Q272.90 3.53 273.04 3.53L273.04 3.53L273.04 3.53Q273.35 3.53 274.23 3.51L274.23 3.51L274.23 3.51Q275.11 3.49 275.35 3.49L275.35 3.49L275.35 3.49Q276.67 3.49 277.62 4.15L277.62 4.15L277.62 4.15Q278.57 4.82 278.57 6.06L278.57 6.06L278.57 6.06Q278.57 6.75 278.32 7.29L278.32 7.29L278.32 7.29Q278.07 7.83 277.71 8.13L277.71 8.13L277.71 8.13Q277.35 8.44 276.91 8.64L276.91 8.64L276.91 8.64Q276.47 8.85 276.13 8.91L276.13 8.91L276.13 8.91Q275.79 8.97 275.52 8.97L275.52 8.97L275.52 8.97Q275.07 8.97 274.61 8.87L274.61 8.87L274.61 8.87Q274.15 8.76 274.15 8.65L274.15 8.65L274.15 8.65Q274.15 8.44 274.33 8.44L274.33 8.44L274.33 8.44Q274.40 8.44 274.62 8.50L274.62 8.50L274.62 8.50Q274.83 8.55 275.04 8.55L275.04 8.55L275.04 8.55Q275.37 8.55 275.73 8.46L275.73 8.46L275.73 8.46Q276.09 8.37 276.49 8.17L276.49 8.17L276.49 8.17Q276.88 7.97 277.13 7.55L277.13 7.55L277.13 7.55Q277.38 7.14 277.38 6.59L277.38 6.59L277.38 6.59Q277.38 5.66 276.63 4.85L276.63 4.85L276.63 4.85Q275.87 4.05 274.54 4.05L274.54 4.05L274.54 4.05Q274.11 4.05 273.95 4.30L273.95 4.30L273.95 4.30Q273.80 4.56 273.80 5.47L273.80 5.47L273.80 5.47Q273.80 8.39 273.78 8.80L273.78 8.80L273.78 8.80Q273.77 9.21 273.77 11.26L273.77 11.26L273.77 11.26Q273.77 12.49 274.34 12.87L274.34 12.87L274.34 12.87Q274.50 12.96 274.73 12.99L274.73 12.99L274.73 12.99Q274.96 13.02 275.11 13.01L275.11 13.01L275.11 13.01Q275.27 13.01 275.39 13.07L275.39 13.07L275.39 13.07Q275.51 13.13 275.51 13.30L275.51 13.30L275.51 13.30Q275.51 13.54 275.18 13.54L275.18 13.54L275.18 13.54Q274.86 13.54 274.05 13.50L274.05 13.50L274.05 13.50Q273.24 13.47 273.18 13.47L273.18 13.47L273.18 13.47Q273.04 13.47 272.63 13.50L272.63 13.50L272.63 13.50Q272.22 13.52 271.88 13.52L271.88 13.52L271.88 13.52Q271.45 13.52 271.45 13.37L271.45 13.37L271.45 13.37Q271.45 13.29 271.47 13.23L271.47 13.23L271.47 13.23Q271.49 13.17 271.51 13.14L271.51 13.14L271.51 13.14Q271.53 13.10 271.60 13.08L271.60 13.08L271.60 13.08Q271.67 13.05 271.70 13.03L271.70 13.03L271.70 13.03Q271.73 13.02 271.83 13.00L271.83 13.00L271.83 13.00Q271.94 12.98 271.98 12.96L271.98 12.96L271.98 12.96Q272.01 12.95 272.06 12.94L272.06 12.94L272.06 12.94Q272.12 12.94 272.14 12.93L272.14 12.93L272.14 12.93Q272.16 12.92 272.21 12.89L272.21 12.89L272.21 12.89Q272.26 12.85 272.29 12.79L272.29 12.79L272.29 12.79Q272.31 12.73 272.36 12.62L272.36 12.62L272.36 12.62Q272.41 12.52 272.47 12.35L272.47 12.35L272.47 12.35Q272.57 12.08 272.62 10.25L272.62 10.25L272.62 10.25Q272.68 8.41 272.68 7.41L272.68 7.41L272.68 7.41Q272.68 6.54 272.67 5.80L272.67 5.80L272.67 5.80Q272.66 5.07 272.66 5.03L272.66 5.03L272.66 5.03Q272.66 4.65 272.43 4.28L272.43 4.28L272.43 4.28Q272.19 3.91 271.64 3.91L271.64 3.91L271.64 3.91Q271.36 3.91 271.36 3.72ZM286.80 10.82L286.80 10.82L286.80 10.82Q286.80 10.53 287.00 10.53L287.00 10.53L287.00 10.53Q287.18 10.53 287.22 10.67L287.22 10.67L287.22 10.67Q287.36 11.00 287.48 11.25L287.48 11.25L287.48 11.25Q287.60 11.49 287.87 11.85L287.87 11.85L287.87 11.85Q288.13 12.21 288.44 12.44L288.44 12.44L288.44 12.44Q288.75 12.67 289.23 12.84L289.23 12.84L289.23 12.84Q289.72 13.01 290.29 13.01L290.29 13.01L290.29 13.01Q291.34 13.01 291.98 12.45L291.98 12.45L291.98 12.45Q292.61 11.90 292.61 11.00L292.61 11.00L292.61 11.00Q292.61 10.35 292.18 9.90L292.18 9.90L292.18 9.90Q291.75 9.46 291.19 9.27L291.19 9.27L291.19 9.27Q290.63 9.09 289.76 8.77L289.76 8.77L289.76 8.77Q288.90 8.46 288.36 8.13L288.36 8.13L288.36 8.13Q287.08 7.38 287.08 6.08L287.08 6.08L287.08 6.08Q287.08 4.83 287.99 4.08L287.99 4.08L287.99 4.08Q288.89 3.33 290.33 3.33L290.33 3.33L290.33 3.33Q290.86 3.33 291.60 3.56L291.60 3.56L291.60 3.56Q292.33 3.79 292.35 3.79L292.35 3.79L292.35 3.79Q292.39 3.79 292.50 3.74L292.50 3.74L292.50 3.74Q292.61 3.68 292.67 3.68L292.67 3.68L292.67 3.68Q292.85 3.68 292.88 3.79L292.88 3.79L292.88 3.79Q293.17 5.49 293.17 5.70L293.17 5.70L293.17 5.70Q293.17 6.09 292.98 6.09L292.98 6.09L292.98 6.09Q292.85 6.09 292.78 5.89L292.78 5.89L292.78 5.89Q292.61 5.49 292.45 5.24L292.45 5.24L292.45 5.24Q292.29 4.98 292.22 4.91L292.22 4.91L292.22 4.91Q292.15 4.84 291.86 4.58L291.86 4.58L291.86 4.58Q291.10 3.91 290.02 3.91L290.02 3.91L290.02 3.91Q289.16 3.91 288.57 4.33L288.57 4.33L288.57 4.33Q287.98 4.75 287.98 5.46L287.98 5.46L287.98 5.46Q287.98 6.09 288.32 6.50L288.32 6.50L288.32 6.50Q288.67 6.90 289.24 7.13L289.24 7.13L289.24 7.13Q289.81 7.35 290.44 7.55L290.44 7.55L290.44 7.55Q291.07 7.74 291.78 8.09L291.78 8.09L291.78 8.09Q292.49 8.44 292.95 8.93L292.95 8.93L292.95 8.93Q293.51 9.53 293.51 10.43L293.51 10.43L293.51 10.43Q293.51 11.90 292.57 12.76L292.57 12.76L292.57 12.76Q291.63 13.62 290.25 13.62L290.25 13.62L290.25 13.62Q289.28 13.62 288.69 13.52L288.69 13.52L288.69 13.52Q288.11 13.41 287.49 13.09L287.49 13.09L287.49 13.09Q287.31 12.98 287.06 12.00L287.06 12.00L287.06 12.00Q286.80 11.02 286.80 10.82Z"></path></g></svg>