<svg data-v-fde0c5aa="" xmlns="http://www.w3.org/2000/svg" viewBox="0 0 300 300" class="font"><!----><defs data-v-fde0c5aa=""><!----></defs><rect data-v-fde0c5aa="" fill="#00000000" x="0" y="0" width="300px" height="300px" class="logo-background-square"></rect><defs data-v-fde0c5aa=""><linearGradient data-v-fde0c5aa="" gradientTransform="rotate(25)" id="5700632b-92ef-4aa8-9776-39e3298bd498" x1="0%" y1="0%" x2="100%" y2="0%"><stop data-v-fde0c5aa="" offset="0%" stop-color="#07FF53" stop-opacity="1"></stop><stop data-v-fde0c5aa="" offset="100%" stop-color="#01A0FD" stop-opacity="1"></stop></linearGradient></defs><g data-v-fde0c5aa="" id="cee33adc-c467-414f-b0e4-84aa76e3679b" fill="url(#5700632b-92ef-4aa8-9776-39e3298bd498)" transform="matrix(5.794047746304656,0,0,5.794047746304656,36.175928335483974,104.57466478486997)"><path d="M6.13 13.72L6.13 13.72L6.13 13.72Q4.87 13.72 3.86 13.35L3.86 13.35L3.86 13.35Q2.84 12.98 2.14 12.29L2.14 12.29L2.14 12.29Q1.43 11.59 1.04 10.61L1.04 10.61L1.04 10.61Q0.66 9.62 0.66 8.39L0.66 8.39L0.66 8.39Q0.66 7.11 1.07 6.05L1.07 6.05L1.07 6.05Q1.48 5.00 2.23 4.24L2.23 4.24L2.23 4.24Q2.97 3.49 4.00 3.07L4.00 3.07L4.00 3.07Q5.04 2.66 6.30 2.66L6.30 2.66L6.30 2.66Q7.17 2.66 7.95 2.90L7.95 2.90L7.95 2.90Q8.74 3.14 9.65 3.67L9.65 3.67L9.91 2.80L10.42 2.80L10.42 6.34L9.72 6.34L9.72 6.34Q9.44 5.03 8.59 4.30L8.59 4.30L8.59 4.30Q7.74 3.57 6.47 3.57L6.47 3.57L6.47 3.57Q4.86 3.57 3.97 4.81L3.97 4.81L3.97 4.81Q3.08 6.05 3.08 8.27L3.08 8.27L3.08 8.27Q3.08 10.46 3.95 11.62L3.95 11.62L3.95 11.62Q4.82 12.78 6.47 12.78L6.47 12.78L6.47 12.78Q7.66 12.78 8.32 12.17L8.32 12.17L8.32 12.17Q8.99 11.56 8.99 10.49L8.99 10.49L8.99 10.49Q8.99 9.84 8.65 9.54L8.65 9.54L8.65 9.54Q8.32 9.24 7.52 9.17L7.52 9.17L7.52 8.61L12.05 8.61L12.05 9.17L12.05 9.17Q11.37 9.17 11.10 9.47L11.10 9.47L11.10 9.47Q10.84 9.77 10.84 10.56L10.84 10.56L10.84 12.42L10.84 12.42Q10.53 12.42 10.32 12.44L10.32 12.44L10.32 12.44Q10.11 12.46 9.90 12.52L9.90 12.52L9.90 12.52Q9.70 12.59 9.45 12.73L9.45 12.73L9.45 12.73Q9.20 12.87 8.82 13.09L8.82 13.09L8.82 13.09Q7.74 13.72 6.13 13.72ZM15.72 1.96L15.72 11.28L15.72 11.28Q15.72 11.84 15.76 12.18L15.76 12.18L15.76 12.18Q15.81 12.52 15.93 12.70L15.93 12.70L15.93 12.70Q16.06 12.88 16.30 12.94L16.30 12.94L16.30 12.94Q16.53 13.01 16.94 13.02L16.94 13.02L16.94 13.58L12.53 13.58L12.53 13.02L12.53 13.02Q12.92 13.01 13.17 12.93L13.17 12.93L13.17 12.93Q13.41 12.85 13.55 12.68L13.55 12.68L13.55 12.68Q13.68 12.50 13.73 12.19L13.73 12.19L13.73 12.19Q13.78 11.87 13.78 11.38L13.78 11.38L13.78 5.60L13.78 5.60Q13.78 4.79 13.75 4.26L13.75 4.26L13.75 4.26Q13.72 3.74 13.68 3.54L13.68 3.54L13.68 3.54Q13.61 3.19 13.36 3.08L13.36 3.08L13.36 3.08Q13.12 2.97 12.47 2.97L12.47 2.97L12.47 2.49L15.72 1.96ZM21.83 6.02L21.83 6.02L21.83 6.02Q22.67 6.02 23.42 6.31L23.42 6.31L23.42 6.31Q24.16 6.59 24.73 7.10L24.73 7.10L24.73 7.10Q25.30 7.60 25.63 8.29L25.63 8.29L25.63 8.29Q25.96 8.99 25.96 9.81L25.96 9.81L25.96 9.81Q25.96 10.67 25.63 11.38L25.63 11.38L25.63 11.38Q25.30 12.10 24.73 12.61L24.73 12.61L24.73 12.61Q24.16 13.13 23.42 13.43L23.42 13.43L23.42 13.43Q22.67 13.72 21.83 13.72L21.83 13.72L21.83 13.72Q21 13.72 20.26 13.43L20.26 13.43L20.26 13.43Q19.52 13.15 18.96 12.63L18.96 12.63L18.96 12.63Q18.40 12.11 18.07 11.39L18.07 11.39L18.07 11.39Q17.75 10.67 17.75 9.81L17.75 9.81L17.75 9.81Q17.75 8.99 18.07 8.29L18.07 8.29L18.07 8.29Q18.40 7.59 18.96 7.08L18.96 7.08L18.96 7.08Q19.52 6.58 20.26 6.30L20.26 6.30L20.26 6.30Q21 6.02 21.83 6.02ZM21.83 6.83L21.83 6.83L21.83 6.83Q21.41 6.83 21.06 7.05L21.06 7.05L21.06 7.05Q20.71 7.27 20.46 7.66L20.46 7.66L20.46 7.66Q20.22 8.05 20.08 8.60L20.08 8.60L20.08 8.60Q19.95 9.16 19.95 9.83L19.95 9.83L19.95 9.83Q19.95 10.53 20.08 11.09L20.08 11.09L20.08 11.09Q20.22 11.65 20.46 12.04L20.46 12.04L20.46 12.04Q20.71 12.43 21.05 12.65L21.05 12.65L21.05 12.65Q21.39 12.87 21.83 12.87L21.83 12.87L21.83 12.87Q22.26 12.87 22.62 12.65L22.62 12.65L22.62 12.65Q22.97 12.43 23.23 12.03L23.23 12.03L23.23 12.03Q23.48 11.63 23.62 11.07L23.62 11.07L23.62 11.07Q23.76 10.51 23.76 9.83L23.76 9.83L23.76 9.83Q23.76 9.16 23.62 8.61L23.62 8.61L23.62 8.61Q23.48 8.06 23.23 7.67L23.23 7.67L23.23 7.67Q22.97 7.27 22.62 7.05L22.62 7.05L22.62 7.05Q22.26 6.83 21.83 6.83ZM32.44 8.75L30.55 13.72L29.50 13.72L27.58 7.97L27.58 7.97Q27.36 7.29 27.06 7.02L27.06 7.02L27.06 7.02Q26.77 6.75 26.28 6.72L26.28 6.72L26.28 6.16L30.28 6.16L30.28 6.72L30.28 6.72Q29.78 6.73 29.58 6.87L29.58 6.87L29.58 6.87Q29.39 7 29.39 7.32L29.39 7.32L29.39 7.32Q29.39 7.48 29.43 7.66L29.43 7.66L29.43 7.66Q29.47 7.84 29.54 8.08L29.54 8.08L30.42 11.35L30.48 11.35L32.44 6.16L33.59 6.16L35.06 11.35L35.13 11.35L36.25 8.46L36.25 8.46Q36.39 8.11 36.44 7.85L36.44 7.85L36.44 7.85Q36.50 7.59 36.50 7.39L36.50 7.39L36.50 7.39Q36.50 7.03 36.26 6.87L36.26 6.87L36.26 6.87Q36.02 6.72 35.62 6.72L35.62 6.72L35.62 6.16L38.63 6.16L38.63 6.72L38.63 6.72Q38.37 6.72 38.21 6.78L38.21 6.78L38.21 6.78Q38.04 6.83 37.87 7.04L37.87 7.04L37.87 7.04Q37.70 7.25 37.51 7.69L37.51 7.69L37.51 7.69Q37.31 8.12 37.02 8.88L37.02 8.88L35.08 13.72L33.98 13.72L32.49 8.75L32.44 8.75Z"></path></g><!----><!----></svg>